<svg width="64" height="64" viewBox="0 0 64 64" fill="none" xmlns="http://www.w3.org/2000/svg">
<g clip-path="url(#clip0_272_98)">
<path d="M32 55C44.7025 55 55 44.7025 55 32C55 19.2975 44.7025 9 32 9C19.2975 9 9 19.2975 9 32C9 44.7025 19.2975 55 32 55Z" stroke="#111111" stroke-width="2" stroke-linecap="round" stroke-linejoin="round"/>
<path d="M25 25C25 16 41 16 40 26C40 32 32 32 32 38" stroke="#111111" stroke-width="2" stroke-linecap="round" stroke-linejoin="round"/>
<path d="M32 47.5C32.8284 47.5 33.5 46.8284 33.5 46C33.5 45.1716 32.8284 44.5 32 44.5C31.1716 44.5 30.5 45.1716 30.5 46C30.5 46.8284 31.1716 47.5 32 47.5Z" fill="#111111"/>
</g>
<defs>
<clipPath id="clip0_272_98">
<rect width="64" height="64" fill="white"/>
</clipPath>
</defs>
</svg>
