<svg width="64" height="64" viewBox="0 0 64 64" fill="none" xmlns="http://www.w3.org/2000/svg">
<g clip-path="url(#clip0_242_48)">
<path d="M13 31H22V18C22 14.6667 23.6667 13 27 13H37C40.3333 13 42 14.6667 42 18V31H51C53.6667 31 55 32.3333 55 35V48C55 51.3333 53.3333 53 50 53H14C10.6667 53 9 51.3333 9 48V35C9 32.3333 10.3333 31 13 31Z" fill="white" stroke="#4B4844" stroke-width="2" stroke-linecap="round" stroke-linejoin="round"/>
<path d="M29.3333 20H33.6667V24.3333H38V28.6667H33.6667V33H29.3333V28.6667H25V24.3333H29.3333V20Z" fill="#EFA2A7" stroke="#4B4844" stroke-width="2" stroke-linecap="round" stroke-linejoin="round"/>
<path d="M27 53V44C27 42 28 41 30 41H34C36 41 37 42 37 44V53H27Z" fill="#B7DBE8" stroke="#4B4844" stroke-width="2" stroke-linecap="round" stroke-linejoin="round"/>
</g>
<defs>
<clipPath id="clip0_242_48">
<rect width="64" height="64" fill="white"/>
</clipPath>
</defs>
</svg>

